#N canvas 151 155 661 616 10;
#X obj 49 33 adc~;
#X obj 92 149 sel 0;
#X obj 99 217 spigot;
#X floatatom 145 150 5 0 0 0 - - -, f 5;
#X obj 46 71 sigmund~ notes env;
#X floatatom 84 276 5 0 0 0 - - -, f 5;
#X msg 70 181 0, f 1;
#X msg 21 172 1;
#X floatatom 14 100 5 0 0 0 - - -, f 5;
#X obj 129 416 moses;
#X obj 298 184 sigmund~ -npeak 3 peaks;
#X obj 549 223 dac~;
#X obj 92 124 expr if($f1>$f2 \, $f1-$f2 \, 0);
#X obj 480 36 gate;
#X obj 477 -40 adc~;
#X msg 27 240 64;
#X floatatom 143 271 5 0 0 0 - - -, f 5;
#X obj 52 324 makenote 64 2000;
#X obj 459 319 bonk~;
#X msg 456 274 minvel 20;
#X obj 562 438 print cooked;
#X obj 442 510 noteout;
#X obj 441 476 makenote 64 2000;
#X obj 423 428 tgl 15 0 empty empty empty 17 7 0 10 -262144 -1 -1 0
1;
#X obj 533 325 f 1;
#X obj 566 325 + 1;
#X obj 509 326 bng 15 250 50 0 empty empty empty 17 7 0 10 -262144
-1 -1;
#X obj 535 357 mod 2;
#X obj 487 385 sel 0 1;
#X obj 189 -14 hsl 128 15 0 10 0 0 empty empty empty -2 -8 0 10 -262144
-1 -1 3000 1;
#X obj 108 3 *~;
#X obj 336 269 bp~, f 8;
#X msg 353 233 100;
#X msg 400 257 6;
#X obj 431 387 spigot;
#X msg 385 356 1;
#X msg 409 336 0;
#X obj 324 308 delay 1000;
#X msg 475 429 40;
#X msg 456 246 thresh 3 10;
#X msg 512 431 80;
#X connect 0 0 10 0;
#X connect 0 0 30 0;
#X connect 1 0 6 0;
#X connect 4 0 5 0;
#X connect 4 0 7 0;
#X connect 4 0 8 0;
#X connect 4 1 12 0;
#X connect 4 1 16 0;
#X connect 5 0 17 0;
#X connect 6 0 2 1;
#X connect 7 0 2 1;
#X connect 10 0 2 0;
#X connect 12 0 1 0;
#X connect 12 0 3 0;
#X connect 13 0 11 0;
#X connect 13 0 11 1;
#X connect 14 0 13 0;
#X connect 15 0 17 0;
#X connect 16 0 17 1;
#X connect 16 0 22 1;
#X connect 18 1 34 0;
#X connect 18 1 36 0;
#X connect 18 1 37 0;
#X connect 19 0 18 0;
#X connect 22 0 21 0;
#X connect 22 1 21 1;
#X connect 24 0 25 0;
#X connect 24 0 27 0;
#X connect 25 0 24 1;
#X connect 26 0 24 0;
#X connect 27 0 20 0;
#X connect 27 0 28 0;
#X connect 28 0 38 0;
#X connect 28 1 40 0;
#X connect 29 0 30 1;
#X connect 30 0 4 0;
#X connect 30 0 31 0;
#X connect 31 0 18 0;
#X connect 32 0 31 1;
#X connect 33 0 31 2;
#X connect 34 0 26 0;
#X connect 35 0 34 1;
#X connect 36 0 34 1;
#X connect 37 0 35 0;
#X connect 38 0 22 0;
#X connect 39 0 18 0;
#X connect 40 0 22 0;
