#N canvas 33 35 450 300 10;
#X obj 54 81 adc~;
#X obj 51 119 sigmund~ notes env;
#X obj 220 34 hsl 128 15 0 10 0 0 empty empty empty -2 -8 0 10 -262144
-1 -1 5800 1;
#X obj 113 51 *~;
#X obj 52 324 makenote 64 500;
#X obj 83 367 noteout;
#X obj 52 324 makenote 64 500;
#X obj 83 367 noteout;
#X obj 52 324 makenote 64 500;
#X obj 83 367 noteout;
#X obj 52 324 makenote 64 500;
#X obj 83 367 noteout;
#X obj 72 184 makenote 64 500;
#X obj 101 243 noteout;
#X connect 0 0 3 0;
#X connect 1 0 12 0;
#X connect 1 1 12 1;
#X connect 2 0 3 1;
#X connect 3 0 1 0;
#X connect 4 0 5 0;
#X connect 4 1 5 1;
#X connect 6 0 7 0;
#X connect 6 1 7 1;
#X connect 8 0 9 0;
#X connect 8 1 9 1;
#X connect 10 0 11 0;
#X connect 10 1 11 1;
#X connect 12 0 13 0;
#X connect 12 1 13 1;
